<svg id="Layer_1" enable-background="new 0 0 510 510" height="512" viewBox="0 0 510 510" width="512" xmlns="http://www.w3.org/2000/svg" fill = "#373D50"><g id="XMLID_1179_"><path id="XMLID_1289_" d="m480 287.58v-65.16c17.459-6.192 30-22.865 30-42.42 0-33.086-34.696-54.839-64.39-40.602l-75.007-75.008c14.242-29.703-7.524-64.39-40.603-64.39-19.555 0-36.228 12.541-42.42 30h-65.16c-6.191-17.459-22.864-30-42.42-30-33.085 0-54.839 34.697-40.602 64.39l-75.008 75.008c-29.702-14.242-64.39 7.523-64.39 40.602 0 19.555 12.542 36.227 30 42.42v65.16c-17.458 6.192-30 22.865-30 42.42 0 33.086 34.697 54.839 64.39 40.603l75.008 75.008c-14.242 29.701 7.523 64.389 40.602 64.389 19.556 0 36.229-12.541 42.42-30h65.16c6.192 17.459 22.865 30 42.42 30 33.086 0 54.839-34.697 40.603-64.39l75.008-75.008c29.703 14.242 64.389-7.523 64.389-40.602 0-19.555-12.541-36.228-30-42.42zm-55.603 61.81-75.008 75.008c-23.875-11.445-52.821.261-61.81 25.603h-65.16c-8.991-25.352-37.944-37.043-61.81-25.603l-75.006-75.008c11.446-23.874-.261-52.822-25.603-61.81v-65.16c25.351-8.991 37.045-37.945 25.603-61.81l75.008-75.008c23.874 11.446 52.822-.261 61.81-25.603h65.16c8.991 25.351 37.945 37.045 61.81 25.603l75.008 75.008c-11.446 23.874.261 52.821 25.603 61.81v65.16c-25.352 8.991-37.046 37.945-25.605 61.81zm55.603-169.39c0 8.271-6.728 15-15 15-19.9-.823-19.894-29.18 0-30 8.272 0 15 6.729 15 15zm-150-150c8.272 0 15 6.729 15 15-.823 19.9-29.18 19.894-30 0 0-8.271 6.729-15 15-15zm-150 0c8.271 0 15 6.729 15 15-.823 19.9-29.18 19.894-30 0 0-8.271 6.729-15 15-15zm-135 135c8.271 0 15 6.729 15 15-.823 19.9-29.18 19.894-30 0 0-8.271 6.729-15 15-15zm-15 165c0-8.272 6.729-15 15-15 19.9.823 19.894 29.18 0 30-8.271 0-15-6.728-15-15zm150 150c-8.271 0-15-6.728-15-15 .823-19.9 29.18-19.894 30 0 0 8.272-6.729 15-15 15zm150 0c-8.271 0-15-6.728-15-15 .823-19.9 29.18-19.894 30 0 0 8.272-6.728 15-15 15zm135-135c-8.271 0-15-6.728-15-15 .823-19.9 29.18-19.894 30 0 0 8.272-6.728 15-15 15z"/><path id="XMLID_1306_" d="m368.136 189.945c-8.348-27.914-33.099-47.811-62.665-49.665-12.679-13.558-32.966-16.76-49.251-7.519-22.62-10.286-48.762-5.022-65.934 11.852-23.407-2.419-44.883 12.896-50.188 35.848-12.144 7.922-19.145 22.033-17.94 36.62-5.634 10.022-8.576 21.268-8.558 32.873.047 39.935 34.794 71.449 74.676 67.281 17.277 22.46 48.852 28.126 72.879 12.934.006.01.012.02.019.029l.013.261c.639 12.921 3.675 22.143 5.684 28.246 1.569 4.771 1.368 4.566 1.442 4.833 2.123 10.819 11.609 18.962 23.086 18.962h36.572c13.445 0 24.178-11.316 23.384-24.849-.614-9.843-.663-15.712 4.403-25.796 14.648-9.408 25.273-23.932 29.795-40.766 11.97-16.129 14.086-37.8 5.712-55.89 3.97-18.541-5.42-37.452-23.129-45.254zm-7.752 84.616-2.505 2.91-.799 3.757c-2.417 11.377-9.643 21.128-19.826 26.751l-3.698 2.043-2.088 3.672c-9.48 16.667-10.668 28.88-10.41 38.806h-24.666c-1.949-6.288-4.668-12.81-5.228-23.235-.28-18.03-17.213-28.543-26.201-31.597l-8.875-3.016-6.6 6.654c-5.736 5.782-13.945 8.4-21.974 6.995-8.022-1.401-14.862-6.648-18.296-14.034l-5.401-11.618-12.32 3.52c-23.852 6.812-47.867-11.292-47.895-36.256-.012-7.593 2.27-14.904 6.597-21.146l3.962-5.715-1.801-6.718c-1.336-4.98 1.447-10.167 6.335-11.811l10.023-3.369.194-10.572c.098-5.285 2.745-10.243 7.085-13.265 4.337-3.019 9.908-3.782 14.896-2.042l10.605 3.701 6.536-9.134c9.228-12.895 27.334-16.478 40.696-6.92l10.837 7.753 8.975-9.847c4.675-5.127 13.022-4.185 16.43 1.864l4.593 8.149c1.138-.068 12.34-.701 11.696-.704 19.791.107 36.353 14.383 39.381 33.942l1.707 11.034 11.061 1.53c6.658.92 10.622 7.973 7.922 14.143l-3.223 7.362 4.346 6.762c5.9 9.186 5.049 21.377-2.071 29.651z"/></g></svg>