<svg id="Capa_1" enable-background="new 0 0 512.063 512.063" height="512" viewBox="0 0 512.063 512.063" width="512" xmlns="http://www.w3.org/2000/svg"><g><path d="m326.281 30.125h-40.125c0-16.638-13.487-30.125-30.125-30.125s-30.125 13.487-30.125 30.125h-40.125v60.25h140.5z"/><path d="m356.281 60.313v60.062h-200.5v-60.062h-65.375v451.75h331.25v-451.75zm-175.625 376.437h-30v-30h30zm0-60.25h-30v-30h30zm0-60.25h-30v-30h30zm0-60.25h-30v-30h30zm0-60.25h-30v-30h30zm175.625 241h-145.375v-30h145.375zm0-60.25h-145.375v-30h145.375zm0-60.25h-145.375v-30h145.375zm0-60.25h-145.375v-30h145.375zm0-60.25h-145.375v-30h145.375z"/></g></svg>